<svg width="22" height="22" viewBox="0 0 22 22" fill="none" xmlns="http://www.w3.org/2000/svg">
<g filter="url(#filter0_d_161_963)">
<g clip-path="url(#clip0_161_963)">
<path fill-rule="evenodd" clip-rule="evenodd" d="M4 7.03908C4 10.5192 6.52758 13.4132 9.83333 14V8.94425H8.08333V7H9.83333V5.44425C9.83333 3.69425 10.9609 2.72242 12.5557 2.72242C13.0609 2.72242 13.6058 2.8 14.1109 2.87758V4.66667H13.2167C12.3609 4.66667 12.1667 5.09425 12.1667 5.63908V7H14.0333L13.7224 8.94425H12.1667V14C15.4724 13.4132 18 10.5198 18 7.03908C18 3.1675 14.85 0 11 0C7.15 0 4 3.1675 4 7.03908Z" fill="white"/>
</g>
</g>
<defs>
<filter id="filter0_d_161_963" x="0" y="0" width="22" height="22" filterUnits="userSpaceOnUse" color-interpolation-filters="sRGB">
<feFlood flood-opacity="0" result="BackgroundImageFix"/>
<feColorMatrix in="SourceAlpha" type="matrix" values="0 0 0 0 0 0 0 0 0 0 0 0 0 0 0 0 0 0 127 0" result="hardAlpha"/>
<feOffset dy="4"/>
<feGaussianBlur stdDeviation="2"/>
<feComposite in2="hardAlpha" operator="out"/>
<feColorMatrix type="matrix" values="0 0 0 0 0 0 0 0 0 0 0 0 0 0 0 0 0 0 0.25 0"/>
<feBlend mode="normal" in2="BackgroundImageFix" result="effect1_dropShadow_161_963"/>
<feBlend mode="normal" in="SourceGraphic" in2="effect1_dropShadow_161_963" result="shape"/>
</filter>
<clipPath id="clip0_161_963">
<rect width="14" height="14" fill="white" transform="translate(4)"/>
</clipPath>
</defs>
</svg>
