<svg width="101" height="24" viewBox="0 0 101 24" fill="none" xmlns="http://www.w3.org/2000/svg">
<path d="M13.532 3.344V7.18H5.524V11.324H11.516V15.048H5.524V23H0.736V3.344H13.532ZM18.4565 5.752C17.6165 5.752 16.9258 5.50933 16.3845 5.024C15.8618 4.52 15.6005 3.904 15.6005 3.176C15.6005 2.42933 15.8618 1.81333 16.3845 1.328C16.9258 0.823998 17.6165 0.571998 18.4565 0.571998C19.2778 0.571998 19.9498 0.823998 20.4725 1.328C21.0138 1.81333 21.2845 2.42933 21.2845 3.176C21.2845 3.904 21.0138 4.52 20.4725 5.024C19.9498 5.50933 19.2778 5.752 18.4565 5.752ZM20.8365 7.376V23H16.0485V7.376H20.8365ZM33.0143 18.94V23H30.5783C28.8423 23 27.489 22.58 26.5183 21.74C25.5476 20.8813 25.0623 19.4907 25.0623 17.568V11.352H23.1583V7.376H25.0623V3.568H29.8503V7.376H32.9863V11.352H29.8503V17.624C29.8503 18.0907 29.9623 18.4267 30.1863 18.632C30.4103 18.8373 30.7836 18.94 31.3063 18.94H33.0143Z" fill="#2F2F2F"/>
<path d="M45.2013 7.208C47.0306 7.208 48.4866 7.80533 49.5693 9C50.6706 10.176 51.2213 11.8 51.2213 13.872V23H46.4613V14.516C46.4613 13.4707 46.1906 12.6587 45.6493 12.08C45.108 11.5013 44.38 11.212 43.4653 11.212C42.5506 11.212 41.8226 11.5013 41.2813 12.08C40.74 12.6587 40.4693 13.4707 40.4693 14.516V23H35.6813V7.376H40.4693V9.448C40.9546 8.75733 41.608 8.216 42.4293 7.824C43.2506 7.41333 44.1746 7.208 45.2013 7.208ZM69.2765 14.936C69.2765 15.384 69.2485 15.8507 69.1925 16.336H58.3565C58.4312 17.3067 58.7392 18.0533 59.2805 18.576C59.8405 19.08 60.5218 19.332 61.3245 19.332C62.5192 19.332 63.3498 18.828 63.8165 17.82H68.9125C68.6512 18.8467 68.1752 19.7707 67.4845 20.592C66.8125 21.4133 65.9632 22.0573 64.9365 22.524C63.9098 22.9907 62.7618 23.224 61.4925 23.224C59.9618 23.224 58.5992 22.8973 57.4045 22.244C56.2098 21.5907 55.2765 20.6573 54.6045 19.444C53.9325 18.2307 53.5965 16.812 53.5965 15.188C53.5965 13.564 53.9232 12.1453 54.5765 10.932C55.2485 9.71867 56.1818 8.78533 57.3765 8.132C58.5712 7.47867 59.9432 7.152 61.4925 7.152C63.0045 7.152 64.3485 7.46933 65.5245 8.104C66.7005 8.73867 67.6152 9.644 68.2685 10.82C68.9405 11.996 69.2765 13.368 69.2765 14.936ZM64.3765 13.676C64.3765 12.8547 64.0965 12.2013 63.5365 11.716C62.9765 11.2307 62.2765 10.988 61.4365 10.988C60.6338 10.988 59.9525 11.2213 59.3925 11.688C58.8512 12.1547 58.5152 12.8173 58.3845 13.676H64.3765ZM78.1584 23.224C76.7957 23.224 75.5824 22.9907 74.5184 22.524C73.4544 22.0573 72.6144 21.4227 71.9984 20.62C71.3824 19.7987 71.0371 18.884 70.9624 17.876H75.6944C75.7504 18.4173 76.0024 18.856 76.4504 19.192C76.8984 19.528 77.4491 19.696 78.1024 19.696C78.6997 19.696 79.1571 19.584 79.4744 19.36C79.8104 19.1173 79.9784 18.8093 79.9784 18.436C79.9784 17.988 79.7451 17.6613 79.2784 17.456C78.8117 17.232 78.0557 16.9893 77.0104 16.728C75.8904 16.4667 74.9571 16.196 74.2104 15.916C73.4637 15.6173 72.8197 15.16 72.2784 14.544C71.7371 13.9093 71.4664 13.06 71.4664 11.996C71.4664 11.1 71.7091 10.288 72.1944 9.56C72.6984 8.81333 73.4264 8.22533 74.3784 7.796C75.3491 7.36667 76.4971 7.152 77.8224 7.152C79.7824 7.152 81.3224 7.63733 82.4424 8.608C83.5811 9.57867 84.2344 10.8667 84.4024 12.472H79.9784C79.9037 11.9307 79.6611 11.5013 79.2504 11.184C78.8584 10.8667 78.3357 10.708 77.6824 10.708C77.1224 10.708 76.6931 10.82 76.3944 11.044C76.0957 11.2493 75.9464 11.5387 75.9464 11.912C75.9464 12.36 76.1797 12.696 76.6464 12.92C77.1317 13.144 77.8784 13.368 78.8864 13.592C80.0437 13.8907 80.9864 14.1893 81.7144 14.488C82.4424 14.768 83.0771 15.2347 83.6184 15.888C84.1784 16.5227 84.4677 17.3813 84.4864 18.464C84.4864 19.3787 84.2251 20.2 83.7024 20.928C83.1984 21.6373 82.4611 22.1973 81.4904 22.608C80.5384 23.0187 79.4277 23.224 78.1584 23.224ZM93.7717 23.224C92.409 23.224 91.1957 22.9907 90.1317 22.524C89.0677 22.0573 88.2277 21.4227 87.6117 20.62C86.9957 19.7987 86.6504 18.884 86.5757 17.876H91.3077C91.3637 18.4173 91.6157 18.856 92.0637 19.192C92.5117 19.528 93.0624 19.696 93.7157 19.696C94.313 19.696 94.7704 19.584 95.0877 19.36C95.4237 19.1173 95.5917 18.8093 95.5917 18.436C95.5917 17.988 95.3584 17.6613 94.8917 17.456C94.425 17.232 93.669 16.9893 92.6237 16.728C91.5037 16.4667 90.5704 16.196 89.8237 15.916C89.077 15.6173 88.433 15.16 87.8917 14.544C87.3504 13.9093 87.0797 13.06 87.0797 11.996C87.0797 11.1 87.3224 10.288 87.8077 9.56C88.3117 8.81333 89.0397 8.22533 89.9917 7.796C90.9624 7.36667 92.1104 7.152 93.4357 7.152C95.3957 7.152 96.9357 7.63733 98.0557 8.608C99.1944 9.57867 99.8477 10.8667 100.016 12.472H95.5917C95.517 11.9307 95.2744 11.5013 94.8637 11.184C94.4717 10.8667 93.949 10.708 93.2957 10.708C92.7357 10.708 92.3064 10.82 92.0077 11.044C91.709 11.2493 91.5597 11.5387 91.5597 11.912C91.5597 12.36 91.793 12.696 92.2597 12.92C92.745 13.144 93.4917 13.368 94.4997 13.592C95.657 13.8907 96.5997 14.1893 97.3277 14.488C98.0557 14.768 98.6904 15.2347 99.2317 15.888C99.7917 16.5227 100.081 17.3813 100.1 18.464C100.1 19.3787 99.8384 20.2 99.3157 20.928C98.8117 21.6373 98.0744 22.1973 97.1037 22.608C96.1517 23.0187 95.041 23.224 93.7717 23.224Z" fill="#89B0AE"/>
</svg>
