<svg width="14" height="14" viewBox="0 0 14 14" fill="none" xmlns="http://www.w3.org/2000/svg">
<path d="M12.7212 5.85762H12.2513V5.83342H7.0013V8.16675H10.298C9.81705 9.52504 8.52468 10.5001 7.0013 10.5001C5.06843 10.5001 3.5013 8.93296 3.5013 7.00008C3.5013 5.06721 5.06843 3.50008 7.0013 3.50008C7.89351 3.50008 8.70522 3.83666 9.32326 4.38646L10.9732 2.7365C9.93139 1.76554 8.5378 1.16675 7.0013 1.16675C3.77984 1.16675 1.16797 3.77862 1.16797 7.00008C1.16797 10.2215 3.77984 12.8334 7.0013 12.8334C10.2228 12.8334 12.8346 10.2215 12.8346 7.00008C12.8346 6.60896 12.7944 6.22717 12.7212 5.85762Z" fill="#FFC107"/>
<path d="M1.83984 4.28496L3.75639 5.6905C4.27497 4.40658 5.53088 3.50008 7.00059 3.50008C7.8928 3.50008 8.70451 3.83666 9.32255 4.38646L10.9725 2.7365C9.93068 1.76554 8.53709 1.16675 7.00059 1.16675C4.76001 1.16675 2.81693 2.43171 1.83984 4.28496Z" fill="#FF3D00"/>
<path d="M7.00172 12.8333C8.50847 12.8333 9.87755 12.2567 10.9127 11.319L9.10726 9.79121C8.50192 10.2516 7.76223 10.5006 7.00172 10.5C5.48447 10.5 4.19618 9.5325 3.71084 8.18237L1.80859 9.648C2.77401 11.5371 4.73459 12.8333 7.00172 12.8333Z" fill="#4CAF50"/>
<path d="M12.7199 5.85746H12.25V5.83325H7V8.16659H10.2967C10.0666 8.81304 9.65223 9.37793 9.10467 9.79146L9.10554 9.79088L10.911 11.3186C10.7832 11.4347 12.8333 9.91658 12.8333 6.99992C12.8333 6.60879 12.7931 6.227 12.7199 5.85746Z" fill="#1976D2"/>
</svg>
