<svg width="24" height="24" viewBox="0 0 21 21" fill="none" xmlns="http://www.w3.org/2000/svg">
<path d="M11.8535 20.1092C9.89622 20.1092 7.00216 20.0534 4.4838 19.5727C1.12052 18.9312 0.869502 17.6105 0.900674 16.3128C0.926924 15.2087 1.43224 11.5123 1.93099 9.99969C2.68567 7.71266 3.83903 5.43875 4.54122 4.46094C5.50427 3.12055 7.94552 0.966406 10.3999 0.892578H10.4229C10.7477 0.892578 11.0709 1.10586 11.2645 1.44875L12.2243 3.14187C12.3371 3.34177 12.3954 3.56787 12.393 3.79742C12.3907 4.02697 12.328 4.25186 12.2111 4.44945C12.0159 4.77758 11.4483 4.86617 11.4433 4.86781L10.9922 4.93344L11.2957 5.27633C11.294 5.27633 11.3958 5.43711 11.1562 5.78492C10.9429 6.095 10.5279 6.2443 9.88966 6.2443C9.29083 6.2443 8.60833 6.10812 8.06036 5.99984C8.02755 5.99328 7.99309 5.99 7.95864 5.99C7.7552 5.99 7.5452 6.1032 7.35489 6.31648C7.1088 6.59047 6.33278 7.70445 6.64778 10.528C6.80364 11.9291 6.33934 13.1907 6.33442 13.2038L6.13919 13.7255L6.65599 13.5188C6.66091 13.5155 7.44841 13.2071 8.53122 13.2071H8.64606L8.71989 13.1185C8.74286 13.0906 11.0069 10.4148 13.9453 10.4148C15.8648 10.4148 17.7023 11.1924 18.8606 12.4951C19.6776 13.4138 20.0599 14.5016 19.9352 15.5565C19.4529 19.6548 15.5859 20.0977 13.9453 20.0977C13.7156 20.0977 13.4465 20.0994 13.1463 20.1027C12.764 20.1059 12.3293 20.1092 11.8535 20.1092V20.1092Z" fill="url(#paint0_linear_63_3)"/>
<path d="M10.2979 3.03835C9.88612 2.96124 9.39558 2.94483 9.01331 3.13843C8.53917 3.3796 8.37346 4.00468 8.64909 4.45913C9.06253 5.13671 10.1798 5.20233 10.8869 5.17444C11.2019 5.16132 11.2035 4.66913 10.8869 4.68225C10.3767 4.70194 9.74011 4.67569 9.2955 4.40499C8.97722 4.20975 8.86893 3.7635 9.26104 3.56499C9.5137 3.43538 9.89269 3.46327 10.165 3.51413C10.4767 3.56991 10.6096 3.09577 10.2979 3.03835Z" fill="#EDA600"/>
<path d="M5.94001 13.5745C5.15251 14.7213 4.94907 15.8746 5.22798 17.2331C5.29196 17.5431 5.7661 17.4119 5.70212 17.1018C5.44946 15.8681 5.64962 14.864 6.36493 13.8222C6.5454 13.5613 6.11884 13.3152 5.94001 13.5745Z" fill="#EDA600"/>
<path d="M7.83805 5.72731C7.47383 5.67481 6.95375 5.23348 6.73719 4.76755C6.67157 4.62645 6.69946 4.4263 6.44188 4.41153C6.08586 4.39184 6.34672 5.10716 6.46813 5.2827C6.80117 5.76013 7.25235 6.02755 7.84297 6.0702C8.15961 6.09317 8.16289 5.77325 7.83805 5.72731Z" fill="#EDA600"/>
<path d="M8.78512 15.1593C9.19856 16.8672 10.7473 18.1404 12.4552 18.3717C14.104 18.5948 16.8734 18.2125 17.6855 16.4489C17.8168 16.1634 17.3935 15.9124 17.2606 16.2011C16.5174 17.8171 13.8645 18.1223 12.3748 17.8664C10.9163 17.6153 9.61364 16.4932 9.2609 15.0297C9.18543 14.7213 8.71129 14.8509 8.78512 15.1593V15.1593Z" fill="#EDA600"/>
<defs>
<linearGradient id="paint0_linear_63_3" x1="10.4286" y1="18.818" x2="10.4286" y2="3.08445" gradientUnits="userSpaceOnUse">
<stop stop-color="#FFB300"/>
<stop offset="0.401" stop-color="#FFCA28"/>
</linearGradient>
</defs>
</svg>
